<svg xmlns="http://www.w3.org/2000/svg" viewBox="0 0 1080 560">
  <rect x="0" y="0" width="540" height="560" fill="#101514"/>
  <rect x="540" y="0" width="540" height="560" fill="#f6f8f6"/>
  <defs>
    <linearGradient id="d" x1="32" y1="7" x2="32" y2="53" gradientUnits="userSpaceOnUse"><stop offset="0" stop-color="#3ce0da"/><stop offset="1" stop-color="#0b8b88"/></linearGradient>
  </defs>

  <!-- DARK icon -->
  <svg x="60" y="86" width="140" height="140" viewBox="0 0 64 64">
    <rect width="64" height="64" rx="15" fill="#0c100f"/>
    <path fill-rule="evenodd" fill="url(#d)" d="M29 13 Q32 7 35 13 L54 47 Q57 53 50 53 L14 53 Q7 53 10 47 Z M30 30 Q32 26 34 30 L44 47 Q46 50 42 50 L22 50 Q18 50 20 47 Z"/>
  </svg>
  <!-- DARK bare mark -->
  <svg x="240" y="96" width="120" height="120" viewBox="0 0 64 64">
    <path fill-rule="evenodd" fill="#1fd0ca" d="M29 13 Q32 7 35 13 L54 47 Q57 53 50 53 L14 53 Q7 53 10 47 Z M30 30 Q32 26 34 30 L44 47 Q46 50 42 50 L22 50 Q18 50 20 47 Z"/>
  </svg>
  <!-- DARK lockup -->
  <svg x="60" y="330" width="420" height="112" viewBox="0 0 240 64">
    <g transform="translate(2,8) scale(0.8)">
      <path fill-rule="evenodd" fill="#1fd0ca" d="M29 13 Q32 7 35 13 L54 47 Q57 53 50 53 L14 53 Q7 53 10 47 Z M30 30 Q32 26 34 30 L44 47 Q46 50 42 50 L22 50 Q18 50 20 47 Z"/>
    </g>
    <text x="52" y="43" font-family="Inter, system-ui, sans-serif" font-size="31" letter-spacing="-1.1">
      <tspan font-weight="700" fill="#eef4f2">Vector</tspan><tspan font-weight="600" fill="#1fd0ca">Code</tspan>
    </text>
  </svg>

  <!-- LIGHT icon -->
  <svg x="600" y="86" width="140" height="140" viewBox="0 0 64 64">
    <rect width="64" height="64" rx="15" fill="#101514"/>
    <path fill-rule="evenodd" fill="url(#d)" d="M29 13 Q32 7 35 13 L54 47 Q57 53 50 53 L14 53 Q7 53 10 47 Z M30 30 Q32 26 34 30 L44 47 Q46 50 42 50 L22 50 Q18 50 20 47 Z"/>
  </svg>
  <!-- LIGHT bare mark -->
  <svg x="780" y="96" width="120" height="120" viewBox="0 0 64 64">
    <path fill-rule="evenodd" fill="#0f8f8c" d="M29 13 Q32 7 35 13 L54 47 Q57 53 50 53 L14 53 Q7 53 10 47 Z M30 30 Q32 26 34 30 L44 47 Q46 50 42 50 L22 50 Q18 50 20 47 Z"/>
  </svg>
  <!-- LIGHT lockup -->
  <svg x="600" y="330" width="420" height="112" viewBox="0 0 240 64">
    <g transform="translate(2,8) scale(0.8)">
      <path fill-rule="evenodd" fill="#0f8f8c" d="M29 13 Q32 7 35 13 L54 47 Q57 53 50 53 L14 53 Q7 53 10 47 Z M30 30 Q32 26 34 30 L44 47 Q46 50 42 50 L22 50 Q18 50 20 47 Z"/>
    </g>
    <text x="52" y="43" font-family="Inter, system-ui, sans-serif" font-size="31" letter-spacing="-1.1">
      <tspan font-weight="700" fill="#101615">Vector</tspan><tspan font-weight="600" fill="#0f8f8c">Code</tspan>
    </text>
  </svg>

  <!-- favicon proofs -->
  <svg x="60" y="470" width="48" height="48" viewBox="0 0 32 32"><rect width="32" height="32" rx="7" fill="#0c100f"/><g transform="scale(0.5)"><path fill-rule="evenodd" fill="#1fd0ca" d="M29 13 Q32 7 35 13 L54 47 Q57 53 50 53 L14 53 Q7 53 10 47 Z M30 30 Q32 26 34 30 L44 47 Q46 50 42 50 L22 50 Q18 50 20 47 Z"/></g></svg>
  <svg x="122" y="486" width="32" height="32" viewBox="0 0 32 32"><rect width="32" height="32" rx="7" fill="#0c100f"/><g transform="scale(0.5)"><path fill-rule="evenodd" fill="#1fd0ca" d="M29 13 Q32 7 35 13 L54 47 Q57 53 50 53 L14 53 Q7 53 10 47 Z M30 30 Q32 26 34 30 L44 47 Q46 50 42 50 L22 50 Q18 50 20 47 Z"/></g></svg>
  <svg x="170" y="494" width="16" height="16" viewBox="0 0 32 32"><rect width="32" height="32" rx="7" fill="#0c100f"/><g transform="scale(0.5)"><path fill-rule="evenodd" fill="#1fd0ca" d="M29 13 Q32 7 35 13 L54 47 Q57 53 50 53 L14 53 Q7 53 10 47 Z M30 30 Q32 26 34 30 L44 47 Q46 50 42 50 L22 50 Q18 50 20 47 Z"/></g></svg>
</svg>
